<?xml version="1.0" encoding="iso-8859-1"?>
<!-- Generator: Adobe Illustrator 19.0.0, SVG Export Plug-In . SVG Version: 6.00 Build 0)  -->
<svg version="1.1" id="Capa_1" xmlns="http://www.w3.org/2000/svg" xmlns:xlink="http://www.w3.org/1999/xlink" x="0px" y="0px"
	 viewBox="0 0 512 512" style="enable-background:new 0 0 512 512;" xml:space="preserve">
<g>
	<g>
		<path d="M363.021,153.131v-46.11C363.021,48.009,315.012,0,256,0S148.979,48.009,148.979,107.021v46.11H43.375V512h425.251
			V153.131H363.021z M178.981,107.021c0-42.469,34.551-77.02,77.02-77.02s77.02,34.551,77.02,77.02v46.11h-15.001v-46.11
			c0-34.198-27.821-62.019-62.019-62.019s-62.019,27.821-62.019,62.019v46.11h-15.001V107.021z M288.018,107.021v46.11h-64.035
			v-46.11c0-17.655,14.363-32.018,32.018-32.018S288.018,89.366,288.018,107.021z M438.625,481.999H73.376V183.133h75.604h75.003
			h64.035h75.003h75.604V481.999z"/>
	</g>
</g>
<g>
	<g>
		<path d="M302.561,221.06H287.56v129.018v27.011v66.993h30.001v-69.086c23.106-6.55,40.088-27.82,40.088-52.995v-45.852
			C357.649,245.773,332.937,221.06,302.561,221.06z M327.648,322.001c0,8.213-3.967,15.518-10.086,20.097v-86.045
			c6.119,4.579,10.086,11.884,10.086,20.097V322.001z"/>
	</g>
</g>
<g>
	<g>
		<path d="M235.884,221.048v43.266h-10.765v-43.266h-30.001v43.266h-10.765v-43.266h-30.001v43.266v15.001
			c0,25.553,17.282,47.131,40.766,53.701v111.067h30.001V333.016c23.485-6.569,40.766-28.148,40.766-53.701v-15.001v-43.266H235.884
			z M210.118,305.08c-8.615,0-16.257-4.25-20.937-10.765h41.874C226.376,300.83,218.734,305.08,210.118,305.08z"/>
	</g>
</g>
<g>
</g>
<g>
</g>
<g>
</g>
<g>
</g>
<g>
</g>
<g>
</g>
<g>
</g>
<g>
</g>
<g>
</g>
<g>
</g>
<g>
</g>
<g>
</g>
<g>
</g>
<g>
</g>
<g>
</g>
</svg>
